<?xml version="1.0" standalone="no"?>
<!DOCTYPE svg PUBLIC "-//W3C//DTD SVG 1.1//EN" "http://www.w3.org/Graphics/SVG/1.1/DTD/svg11.dtd" >
<svg xmlns="http://www.w3.org/2000/svg" xmlns:xlink="http://www.w3.org/1999/xlink" version="1.1">
<metadata></metadata>
<defs>
<font id="ruslan_displayregular" horiz-adv-x="1515" >
<font-face units-per-em="2048" ascent="1638" descent="-410" />
<missing-glyph horiz-adv-x="716" />
<glyph horiz-adv-x="0" />
<glyph horiz-adv-x="682" />
<glyph horiz-adv-x="0" />
<glyph horiz-adv-x="0" />
<glyph unicode="&#xd;" horiz-adv-x="681" />
<glyph unicode=" "  horiz-adv-x="716" />
<glyph unicode="&#x09;" horiz-adv-x="716" />
<glyph unicode="&#xa0;" horiz-adv-x="716" />
<glyph unicode="!" horiz-adv-x="618" d="M31 1124l549 -65q-10 -199 -67.5 -423t-127.5 -353q-123 8 -205 32q-14 449 -149 809zM68 0q41 92 45 209q116 -21 276 -21h68q-31 -121 -72 -198q-23 -2 -132.5 -2t-184.5 12z" />
<glyph unicode="&#x22;" horiz-adv-x="473" d="M43 1176h137q-10 -98 -10 -220t12 -233h-137q14 172 14 209t-16 244zM295 1176h137q-10 -96 -10 -219t12 -234h-137q14 172 14 209t-16 244z" />
<glyph unicode="#" horiz-adv-x="784" d="M14 328l25 137l145 -6q10 49 27 147q-94 -4 -139 -8q8 37 26 137l135 -6q25 156 35 232h138q-37 -156 -54 -234q25 -2 75 -2t75 2q10 53 21.5 130t15.5 104h137q-33 -139 -53 -232l147 6q-18 -100 -27 -137q-47 4 -145 8q-20 -98 -29 -147l142 6l-25 -137q-43 4 -137 8 q-25 -156 -33 -234h-139q20 78 53 238l-76 2l-75 -2q-14 -90 -33 -238h-137q18 78 51 234q-94 -4 -146 -8zM299 457q25 -2 77 -2t79 2q8 51 28 153h-155q-21 -102 -29 -153z" />
<glyph unicode="$" horiz-adv-x="1335" d="M25 2q41 193 69 270q137 6 264 9q-23 -57 -22 -93q0 -98 170 -98t309 23q-55 59 -169 137t-209 140.5t-190 170t-136 234.5q63 127 135 227q117 25 241 37q-4 29 -4 88h131q-2 -27 -2 -80q74 4 115 4q-2 25 -2 76h129l-2 -78q219 -10 403 -47q-35 -170 -61 -246 q-51 -2 -133 -5t-131 -5q20 57 20 84q0 51 -45 67.5t-172 16.5t-225 -23q100 -145 297 -231q84 -37 170 -74q215 -88 340 -231q-47 -209 -152 -373q-113 -31 -311 -43q0 -53 2 -78h-129q0 49 2 74q-39 -2 -115 -2q0 -49 2 -72h-131l4 74q-285 6 -462 47z" />
<glyph unicode="%" horiz-adv-x="1105" d="M8 781.5q0 117.5 96.5 198.5t247.5 81q68 0 142 -19q70 -90 69.5 -207.5t-98.5 -213t-242 -95.5q-59 0 -131 23q-84 115 -84 232.5zM172 -27q326 539 653 1131l82 -47q-354 -578 -653 -1131zM221.5 850q-0.5 -68 29.5 -146.5t77 -109.5q23 51 22.5 124t-31 146.5 t-83.5 110.5q-14 -57 -14.5 -125zM537 222.5q0 119.5 97 201.5t249 82q66 0 139 -19q70 -94 70 -208.5t-100.5 -211t-243.5 -96.5q-66 1 -127 21q-84 111 -84 230.5zM748 294q0 -67 29.5 -145.5t76.5 -109.5q23 51 23 124t-31 146.5t-84 108.5q-14 -57 -14 -124z" />
<glyph unicode="&#x26;" horiz-adv-x="1525" d="M12 356q104 145 357 275q-78 117 -148 256q49 125 125 213h469q76 -92 107 -203q-23 -53 -71 -90t-63.5 -49.5t-63.5 -43t-50 -32.5q80 -115 223 -244q8 20 41 117h219q-45 -113 -125 -219q225 -190 484 -336h-576q-59 39 -131 100q-39 -35 -125 -100h-487 q-121 111 -185 356zM407.5 418.5q0.5 -64.5 72 -155.5t159.5 -152q43 33 80 73q-138 139 -277 336q-35 -37 -34.5 -101.5zM479 1018q45 -137 129 -252q49 35 49 86t-55 101.5t-123 64.5z" />
<glyph unicode="'" horiz-adv-x="262" d="M61 1176h138q-10 -98 -10.5 -220t12.5 -233h-138q14 172 14.5 209t-16.5 244z" />
<glyph unicode="(" horiz-adv-x="415" d="M10 497q0 416 199 742h137q-78 -309 -78 -637q0 -451 150 -835q-82 10 -230 40q-178 274 -178 690z" />
<glyph unicode=")" horiz-adv-x="423" d="M0 1239q61 -8 229 -41q178 -272 178.5 -689t-198.5 -742h-137q78 308 78 636q0 451 -150 836z" />
<glyph unicode="*" horiz-adv-x="559" d="M18 475v109q92 -6 185 -6l-99 155l95 53q27 -57 84 -168q49 88 86 168l94 -53q-66 -98 -98 -155l184 6v-109q-63 6 -189 10q66 -106 103 -157l-94 -54q-47 94 -86 162l-84 -162q-33 16 -95 54q57 82 103 157q-123 -4 -189 -10z" />
<glyph unicode="+" horiz-adv-x="557" d="M12 459v108q76 -4 219 -8q-4 143 -8 219h109q-10 -123 -10 -219q147 4 221 8v-108q-123 10 -221 10q0 -98 10 -221h-109q4 74 8 221q-96 0 -219 -10z" />
<glyph unicode="," horiz-adv-x="440" d="M33 0q41 92 45 209q127 -23 344 -23q-37 -203 -143 -366q-51 6 -97 18q47 80 47 150q-129 0 -196 12z" />
<glyph unicode="-" horiz-adv-x="780" d="M25 502l30 26q88 79 135 97l138 -2q315 0 422 34q-66 -106 -154 -198h-61q-309 0 -510 43z" />
<glyph unicode="." horiz-adv-x="448" d="M37 0q41 94 45 209q117 -20 344 -21q-29 -114 -72 -198q-23 -2 -130 -2t-187 12z" />
<glyph unicode="/" horiz-adv-x="761" d="M-123 -233q345 608 705 1435q160 41 274 41q-332 -584 -706 -1436l-21 -4q-152 -37 -252 -36z" />
<glyph unicode="0" horiz-adv-x="1347" d="M70 486.5q0 244.5 204.5 414.5t524.5 170q170 0 338 -51q147 -184 147 -399q0 -268 -220 -467t-529 -199q-136 0 -283 51q-182 236 -182 480.5zM491.5 603q0.5 -167 73 -307t199.5 -200q96 123 96 285t-79 301t-218 211q-72 -123 -71.5 -290z" />
<glyph unicode="1" horiz-adv-x="884" d="M35 731q285 106 504 293h241q4 -193 4 -291q0 -408 -43 -733h-465q10 174 10.5 328.5t-22.5 335.5q-57 -45 -137 -95q-61 111 -92 162z" />
<glyph unicode="2" horiz-adv-x="1165" d="M45 0l14 12q463 442 463 701q0 115 -100 192q-109 -78 -158 -192q-31 8 -95.5 28.5t-98.5 30.5q104 166 243 252h557q152 -115 211 -279q-80 -150 -254.5 -306.5t-414.5 -293.5q100 -12 216.5 -12t180 45t96.5 135l195 -10q-29 -184 -82 -303h-973z" />
<glyph unicode="3" horiz-adv-x="1040" d="M33 731q31 158 65 293h910q-117 -246 -416 -424q256 -72 432 -194q-109 -246 -301 -406h-641q137 86 282.5 225.5t200.5 241.5q-47 33 -122.5 67.5t-133.5 47.5q156 90 248 297q-35 12 -113.5 12t-124 -10.5t-67 -36t-27.5 -41.5q-8 -16 -20 -76q-61 0 -172 4z" />
<glyph unicode="4" horiz-adv-x="1208" d="M47 334q127 127 220 323.5t120 366.5h447q-74 -186 -261 -373q-131 -135 -317 -295l-37 -30q137 -37 332 -37v33q0 102 -23 243h514q0 -61 -18 -274q94 18 180 69q-41 -100 -90 -206h-102l-19 -154h-471q8 35 21 154h-461q-18 111 -35 180z" />
<glyph unicode="5" horiz-adv-x="993" d="M18 557v14q0 121 21.5 249t58.5 204h639q90 0 250 47q-25 -39 -50.5 -90t-41.5 -80q-45 -10 -104 -10h-312q-49 -96 -73 -244q139 0 308 -24.5t273 -67.5q-92 -330 -299 -555h-641q309 199 440 479q-82 33 -218 55.5t-251 22.5z" />
<glyph unicode="6" horiz-adv-x="1105" d="M66 440q0 362 204 584h615q-205 -125 -291 -371q207 -8 463 -88q41 -109 41 -255t-88 -310h-834q-49 63 -79.5 183t-30.5 257zM536.5 324.5q0.5 -107.5 18.5 -191.5q59 70 102 167t48 171q-52 45 -144 70q-25 -109 -24.5 -216.5z" />
<glyph unicode="7" horiz-adv-x="1120" d="M25 731q12 76 61 275l4 18h1016q-72 -276 -177.5 -558t-207.5 -466h-637q328 326 539 879q-78 12 -160 12h-33q-113 0 -163 -35t-70 -131z" />
<glyph unicode="8" horiz-adv-x="1089" d="M8 324q117 141 271 237q-94 125 -152 264q86 133 162 201h536q113 -113 136 -244q-66 -121 -154 -194q86 -41 160.5 -123t111.5 -174q-53 -180 -147 -291h-756q-113 147 -168 324zM352 358q0 -98 76 -156.5t176 -66.5q-12 76 -74.5 162t-158.5 158q-19 -54 -19 -97z M455 891q47 -166 223 -250q16 29 16 66q0 70 -57 124t-182 60z" />
<glyph unicode="9" horiz-adv-x="1132" d="M57 716q0 148 86 308h836q49 -63 78.5 -181t29.5 -257q0 -373 -204 -586h-615q205 129 291 371q-199 8 -461 88q-41 109 -41 257zM449 555q43 -43 143 -70q27 121 26.5 223.5t-18.5 182.5q-59 -68 -103 -166t-48 -170z" />
<glyph unicode=":" horiz-adv-x="419" d="M16 0q41 92 45 209q119 -21 277 -21h68q-31 -121 -72 -198q-23 -2 -131.5 -2t-186.5 12zM16 707q41 92 45 208q123 -22 291 -22h54q-29 -117 -72 -197q-25 -2 -142.5 -2t-175.5 13z" />
<glyph unicode=";" horiz-adv-x="423" d="M25 2q41 92 45 209q129 -23 344 -23q-33 -203 -144 -366q-45 6 -96 18q45 78 49 150q-131 0 -198 12zM25 709q41 92 45 206q122 -20 288 -20h56q-23 -104 -72 -197q-49 -4 -148.5 -4t-168.5 15z" />
<glyph unicode="&#x3c;" horiz-adv-x="716" d="M41 453l451 450h186l-383 -450l383 -453h-186z" />
<glyph unicode="=" horiz-adv-x="587" d="M27 346v107q125 -6 257 -6.5t273 6.5v-107q-154 10 -270.5 10t-259.5 -10zM27 545v108q117 -8 263 -8t267 8v-108q-147 10 -265 10t-265 -10z" />
<glyph unicode="&#x3e;" horiz-adv-x="716" d="M68 0l383 453l-383 450h186l451 -450l-451 -453h-186z" />
<glyph unicode="?" horiz-adv-x="966" d="M31 1077q205 47 444.5 47t362.5 -80.5t123 -214.5q-8 -74 -61.5 -149.5t-113.5 -130.5q-172 -156 -206 -264q-141 14 -205 30q16 53 101 223.5t85 261.5t-41 165q-53 18 -96 18t-88 -10q14 -82 35 -150q-115 0 -262 15q-53 112 -78 239zM262 0q41 98 45 209 q106 -20 344 -21q-28 -114 -71 -198q-23 -2 -129.5 -2t-188.5 12z" />
<glyph unicode="@" horiz-adv-x="1105" d="M41 512q0 213 149.5 362.5t362.5 149.5t362.5 -149.5t149.5 -362.5q0 -121 -62.5 -205t-193.5 -84q-158 0 -209 154q12 0 -60.5 -58.5t-82.5 -60.5h-238q-8 41 -8 114.5t20 133.5q76 25 144.5 75t97.5 109q-29 43 -59 78h338q35 -84 67.5 -242.5t50.5 -183.5 q18 -20 43 -23q45 0 69 67t24 126q0 188 -132.5 321.5t-320.5 133.5t-321.5 -133.5t-133.5 -321.5t133.5 -320.5t321.5 -132.5q150 0 278 97l41 -43q-139 -113 -335.5 -113t-346 149.5t-149.5 362.5zM457 356q64 34 125 97q-31 100 -70 170q-45 -129 -55 -267z" />
<glyph unicode="A" horiz-adv-x="1449" d="M125 222q0 138 41 278q147 43 283.5 145.5t197.5 220.5q-57 90 -117 158h680q203 -445 203 -1008v-16h-475q-8 113 -35 242q-143 -143 -287 -242h-477q-14 84 -14 222zM616 201q152 81 250 190q-51 176 -139 344q-96 -283 -111 -534z" />
<glyph unicode="B" horiz-adv-x="1423" d="M143 614q0 215 39 410h1137q-92 -287 -352 -416q236 -84 376 -233q-18 -190 -88 -375h-1030q-82 284 -82 614zM659 133q139 0 228 23q-37 227 -209 338q-19 -183 -19 -361zM694 635q100 27 186.5 92.5t123.5 161.5q-164 0 -267 -10q-25 -119 -43 -244z" />
<glyph unicode="C" horiz-adv-x="1294" d="M78 520q0 229 188.5 390t546.5 161q201 0 420 -51q-33 -129 -82 -244q-129 -12 -266 -12q21 57 35 135q-72 12 -138.5 12t-160.5 -22q-31 -129 -31 -252q0 -317 282 -487q188 125 340 311q6 -82 11 -250q-152 -119 -309.5 -186.5t-393.5 -67.5h-47q-184 80 -289.5 235.5 t-105.5 327.5z" />
<glyph unicode="D" horiz-adv-x="1470" d="M152 762q0 121 12 262q329 47 481 47q395 0 643 -98q88 -176 88 -357q0 -231 -157 -401q-229 -244 -621 -244q-135 0 -367 31q-79 407 -79 751v9zM670 366q0 -167 6 -272q111 59 173 199.5t62 285t-52 237t-152 102.5q-37 -385 -37 -552z" />
<glyph unicode="E" horiz-adv-x="1374" d="M131 548.5q0 272.5 29 475.5h1097q-37 -221 -65 -311q-121 -6 -221 -8q16 47 16 88q0 98 -147 98q-55 0 -123 -12q-45 -195 -70 -342q82 75 203 75l192 -12q29 0 43 2l-96 -180h-18q-39 0 -111 21.5t-102 21.5q-84 0 -133 -109q-8 -100 -13 -200q106 -20 168 -21h19 q88 0 140 39t75 139l246 -10q-31 -176 -82 -303h-1006q-41 276 -41 548.5z" />
<glyph unicode="F" horiz-adv-x="1267" d="M135 541.5q0 279.5 29 480.5h1093q-37 -221 -65 -309l-221 -11q18 51 18 89q0 98 -149 98q-66 0 -121 -10q-45 -182 -74 -373q82 76 201 76l194 -13q27 0 41 2l-96 -180h-18q-39 0 -111 21.5t-102 21.5q-80 0 -129 -104q-11 -116 -11 -184v-16q0 -61 4 -130h-444 q-39 262 -39 541.5z" />
<glyph unicode="G" horiz-adv-x="1382" d="M59 518q0 231 187.5 392t548.5 161q188 0 419 -51q-35 -139 -79 -246q-125 -8 -269 -12q23 70 33 137q-66 12 -134.5 12t-162.5 -22q-33 -139 -33 -252q0 -170 77 -318.5t206 -218.5l2 86q0 145 -25 346h443q0 -291 -29 -532q-317 -45 -657 -45h-131q-186 80 -291 234.5 t-105 328.5z" />
<glyph unicode="H" d="M129 1024h541q4 -84 4 -250q119 -37 235 -100q0 190 -14 350h532q5 -115 5 -170q0 -401 -78 -854h-490q33 242 43 520q-106 66 -237 80q-12 -301 -66 -600h-465q27 201 27 480.5t-37 543.5z" />
<glyph unicode="I" horiz-adv-x="811" d="M139 0q39 188 39 435t-33 589h553v-55q0 -541 -67 -969h-492z" />
<glyph unicode="J" horiz-adv-x="1087" d="M10 -143q4 135 13 249q190 -137 370 -198q14 160 15 442v5q0 280 -48 669h553q4 -78 5 -240q0 -434 -58 -784q-80 -76 -147.5 -111.5t-92 -49t-88 -41t-75.5 -34.5q-262 20 -447 93z" />
<glyph unicode="K" horiz-adv-x="1447" d="M84 509q0 208 31 515h569q-61 -254 -84 -426q92 152 193.5 255t240.5 175q53 10 133 10h68q131 0 195 31q-90 -133 -175 -231h-32q-104 0 -203 32q-139 -115 -223 -305q217 -55 483 -65q61 -156 84 -500h-530q-35 152 -106 280t-146 175q-14 -169 -14 -271q0 -8 -1 -15 q0 -93 6 -169h-450q-39 301 -39 509z" />
<glyph unicode="L" horiz-adv-x="1232" d="M82 542.5q0 280.5 29 481.5h589q-135 -518 -139 -866q96 -23 184.5 -23t140.5 40t77 138l245 -8q-31 -184 -82 -305h-1005q-39 262 -39 542.5z" />
<glyph unicode="M" horiz-adv-x="2154" d="M74 222q0 138 41 278q145 43 279 141t198 215q-53 88 -113 168h647q78 -211 117 -459q103 191 103 365q0 55 -17 94h584q74 -197 109.5 -481.5t37.5 -542.5h-473q-14 369 -121 711q-178 -348 -192 -711h-402q-53 401 -204 713q-111 -260 -111 -484q0 -121 29 -229h-498 q-14 84 -14 222z" />
<glyph unicode="N" horiz-adv-x="1464" d="M47 1024h582q86 -147 234.5 -304t283.5 -245q0 299 -68 549h244q12 -215 12 -453.5t-20 -570.5h-197q-397 213 -729 580q17 -138 17 -282v-12q0 -139 -11 -286h-239q41 252 41 466t-21 339q-82 123 -129 219z" />
<glyph unicode="O" horiz-adv-x="1347" d="M70 485q0 246 204.5 416t524.5 170q170 0 338 -51q147 -186 147 -399q0 -268 -219 -467t-530 -199q-133 0 -283 51q-182 233 -182 479zM564 298q72 -140 200 -202q96 123 96 285t-79 301t-218 211q-72 -122 -72 -287q0 -167 73 -308z" />
<glyph unicode="P" horiz-adv-x="1361" d="M78 692q0 186 22 332h1110q59 -231 66 -551q-303 -135 -674 -176v-41q0 -117 10 -256h-450q-84 326 -84 692zM604 438q131 16 219 66q-33 217 -176 385q-33 -203 -43 -451z" />
<glyph unicode="Q" horiz-adv-x="1363" d="M82 484q0 245 205 416t524 171q176 0 336 -49q149 -187 149 -401q0 -296 -256 -500q23 4 82.5 20.5t97 16.5t80.5 -15l148 -190q-41 49 -120 49t-210 -22.5t-178 -24.5q-41 18 -82 61q-150 -61 -297 -61t-297 51q-182 233 -182 478zM576 298q73 -140 200 -202 q96 123 96 285t-79 301t-218 209q-74 -126 -74 -288q0 -164 75 -305z" />
<glyph unicode="R" horiz-adv-x="1445" d="M129 552q0 255 29 472h1069q47 -206 47 -356l-2 -70q-164 -88 -410 -137q176 -47 340 -47h43q113 -166 146 -414h-531q-20 143 -82.5 246.5t-152.5 140.5q-2 -35 -2 -139.5t12 -247.5h-447q-59 297 -59 552zM631 532q113 16 184 80q-38 138 -147 275q-25 -180 -37 -355z " />
<glyph unicode="S" horiz-adv-x="1300" d="M-29 -166q37 104 121 262h17q131 0 246.5 -41t211 -82t153.5 -41t85 9q0 135 -84 223q-45 47 -77 72.5t-97 70.5l-35 25q-139 96 -229 195.5t-131 244.5q66 145 129 252q195 47 403 47h90q176 0 404 -49q-33 -135 -80 -244q-172 -12 -267 -12q19 47 35 135 q-82 12 -175 12t-181 -12q55 -94 131 -153.5t191.5 -118t188.5 -107.5t161 -161.5t110 -235.5q-98 -127 -260 -224.5t-332 -129.5q-115 10 -289.5 64t-263 54t-176.5 -55z" />
<glyph unicode="T" horiz-adv-x="1443" d="M2 668l74 356h1362q-41 -225 -95 -369l-206 13q8 33 8 65q0 80 -49 119t-129 39q-53 -325 -53 -529q0 -6 -1 -11q0 -197 17 -351h-447q-69 321 -69 689v11q0 63 4 191q-174 -51 -213 -236z" />
<glyph unicode="U" horiz-adv-x="1435" d="M147 521q0 208 31 503h551q-82 -444 -86 -854q86 -78 248 -78t248 58q4 68 4 194q0 324 -58 680h263q8 -133 8 -388t-33 -544q-213 -137 -510 -137q-395 0 -639 137q-27 221 -27 429z" />
<glyph unicode="V" horiz-adv-x="1439" d="M16 1024h559q8 -375 193 -731q111 184 111 405q0 150 -54 326h547q2 -31 2 -90q0 -262 -69 -432q-188 -82 -302 -165t-114 -171t76 -166h-514q-346 440 -435 1024z" />
<glyph unicode="W" horiz-adv-x="2129" d="M29 1024h544q35 -440 181 -731q104 178 104 432q0 137 -35 299h488q33 -406 192 -731q105 193 105 416q0 160 -49 315h548q2 -31 2 -90q0 -262 -69 -434q-182 -53 -303 -141.5t-121 -181.5t84 -177h-516q-127 188 -215 436q-68 -154 -68 -259t60 -177h-515 q-158 209 -268 483.5t-149 540.5z" />
<glyph unicode="X" horiz-adv-x="1435" d="M16 -301q172 307 514 745q-211 330 -477 580h637q47 -100 131 -229q16 18 63.5 74.5t74 85t69.5 69.5q84 80 174 113q35 10 141.5 21t153.5 42q-49 -113 -117 -215q-66 -16 -113.5 -16t-90.5 6q-121 -86 -291 -281q248 -387 395 -694h-510q-84 180 -168 326 q-227 -324 -350 -574q-41 -10 -121 -27.5t-115 -25.5z" />
<glyph unicode="Y" horiz-adv-x="1409" d="M72 1024h598q-43 -190 -43 -404t69 -489q14 55 49 193.5t51.5 198t50.5 168t61.5 162.5t68.5 122q74 121 194 164q35 10 141.5 21t153.5 42q-55 -127 -114 -217q-70 -16 -117 -16t-90 6q-63 -76 -114.5 -203t-77 -227.5t-56.5 -245.5q-156 -741 -311 -1053 q-102 -31 -254 -59q205 350 332 813h-424q-162 524 -168 1024z" />
<glyph unicode="Z" horiz-adv-x="1306" d="M39 0q276 496 606 881q-49 10 -135 10t-155.5 -52.5t-88.5 -138.5q-158 10 -200 15l63 309h1141q-362 -393 -631 -866q106 -21 172 -21h18q86 0 139.5 39t75.5 137q152 -4 246 -8q-31 -178 -82 -305h-1169z" />
<glyph unicode="[" horiz-adv-x="509" d="M84 -223q43 459 43 860t-8 623q129 -20 360 -21q-31 -119 -71 -201q-16 -2 -66 -2q-25 -354 -25 -665.5t2 -405.5q74 -4 96.5 -4t39 1t24.5 1q-30 -119 -71 -201q-41 -2 -182.5 -2t-141.5 17z" />
<glyph unicode="\" horiz-adv-x="761" d="M-90 1243q114 0 274 -41q360 -827 705 -1435q-100 0 -252 36l-21 4q-375 852 -706 1436z" />
<glyph unicode="]" horiz-adv-x="507" d="M31 -227q41 94 45 213q16 -2 47 -6l43 -9q27 346 27 659.5t-3 405.5q-104 0 -159 13q41 98 45 211q72 -23 319 -23q31 0 31 2q-51 -520 -51 -1114q0 -119 4 -356q-178 -6 -235.5 -6.5t-112.5 10.5z" />
<glyph unicode="^" horiz-adv-x="880" d="M27 698l311 326h203l309 -326h-188l-224 179l-221 -179h-190z" />
<glyph unicode="_" horiz-adv-x="1089" d="M33 2v139q211 -10 508 -10t510 10v-139q-297 14 -509 14t-509 -14z" />
<glyph unicode="`" horiz-adv-x="559" d="M63 1364l228 29q63 -170 211 -267h-135q-76 35 -123 61.5t-99.5 74t-81.5 102.5z" />
<glyph unicode="a" horiz-adv-x="1452" d="M125 222q0 138 41 278q147 43 283.5 145.5t197.5 220.5q-55 86 -117 158h680q203 -441 203 -1008v-16h-475q-8 117 -35 242q-127 -129 -287 -242h-477q-14 84 -14 222zM616 201q148 75 250 190q-53 182 -139 344q-96 -283 -111 -534z" />
<glyph unicode="b" horiz-adv-x="1423" d="M143 614q0 215 39 410h1137q-92 -287 -352 -416q236 -84 376 -233q-18 -190 -88 -375h-1030q-82 284 -82 614zM659 133q139 0 228 23q-37 227 -209 338q-19 -183 -19 -361zM694 635q100 27 186.5 92.5t123.5 161.5q-164 0 -267 -10q-25 -119 -43 -244z" />
<glyph unicode="c" horiz-adv-x="1294" d="M78 520q0 229 188.5 390t546.5 161q201 0 420 -51q-33 -129 -82 -244q-129 -12 -266 -12q21 57 35 135q-72 12 -138.5 12t-160.5 -22q-31 -129 -31 -252q0 -317 282 -487q188 125 340 311q6 -82 11 -250q-152 -119 -309.5 -186.5t-393.5 -67.5h-47q-184 80 -289.5 235.5 t-105.5 327.5z" />
<glyph unicode="d" horiz-adv-x="1470" d="M152 762q0 121 12 262q329 47 481 47q395 0 643 -98q88 -176 88 -357q0 -231 -157 -401q-229 -244 -621 -244q-135 0 -367 31q-79 407 -79 751v9zM670 366q0 -167 6 -272q111 59 173 199.5t62 285t-52 237t-152 102.5q-37 -385 -37 -552z" />
<glyph unicode="e" horiz-adv-x="1374" d="M131 548.5q0 272.5 29 475.5h1097q-37 -221 -65 -311q-121 -6 -221 -8q16 47 16 88q0 98 -147 98q-55 0 -123 -12q-45 -195 -70 -342q82 75 203 75l192 -12q29 0 43 2l-96 -180h-18q-39 0 -111 21.5t-102 21.5q-84 0 -133 -109q-8 -100 -13 -200q106 -20 168 -21h19 q88 0 140 39t75 139l246 -10q-31 -176 -82 -303h-1006q-41 276 -41 548.5z" />
<glyph unicode="f" horiz-adv-x="1267" d="M135 541.5q0 279.5 29 480.5h1093q-37 -221 -65 -309l-221 -11q18 51 18 89q0 98 -149 98q-66 0 -121 -10q-45 -182 -74 -373q82 76 201 76l194 -13q27 0 41 2l-96 -180h-18q-39 0 -111 21.5t-102 21.5q-80 0 -129 -104q-10 -117 -11 -184v-16q0 -61 4 -130h-444 q-39 262 -39 541.5z" />
<glyph unicode="g" horiz-adv-x="1382" d="M59 518q0 231 187.5 392t548.5 161q188 0 419 -51q-35 -139 -79 -246q-125 -8 -269 -12q23 70 33 137q-66 12 -134.5 12t-162.5 -22q-33 -139 -33 -252q0 -170 77 -318.5t206 -218.5l2 86q0 145 -25 346h443q0 -291 -29 -532q-317 -45 -657 -45h-131q-186 80 -291 234.5 t-105 328.5z" />
<glyph unicode="h" d="M129 1024h541q4 -84 4 -250q119 -37 235 -100q0 190 -14 350h532q5 -115 5 -170q0 -401 -78 -854h-490q33 242 43 520q-106 66 -237 80q-12 -301 -66 -600h-465q27 201 27 480.5t-37 543.5z" />
<glyph unicode="i" horiz-adv-x="811" d="M139 0q39 188 39 435t-33 589h553v-55q0 -541 -67 -969h-492z" />
<glyph unicode="j" horiz-adv-x="1087" d="M10 -143q4 135 13 249q190 -137 370 -198q14 160 15 442v5q0 280 -48 669h553q4 -78 5 -240q0 -434 -58 -784q-80 -76 -147.5 -111.5t-92 -49t-88 -41t-75.5 -34.5q-262 20 -447 93z" />
<glyph unicode="k" horiz-adv-x="1447" d="M84 509q0 208 31 515h569q-61 -254 -84 -426q92 152 193.5 255t240.5 175q53 10 133 10h68q131 0 195 31q-90 -133 -175 -231h-32q-104 0 -203 32q-139 -115 -223 -305q217 -55 483 -65q61 -156 84 -500h-530q-35 152 -106 280t-146 175q-14 -169 -14 -271q0 -8 -1 -15 q0 -93 6 -169h-450q-39 301 -39 509z" />
<glyph unicode="l" horiz-adv-x="1232" d="M82 542.5q0 280.5 29 481.5h589q-135 -518 -139 -866q96 -23 184.5 -23t140.5 40t77 138l245 -8q-31 -184 -82 -305h-1005q-39 262 -39 542.5z" />
<glyph unicode="m" horiz-adv-x="2154" d="M74 222q0 138 41 278q145 43 279 141t198 215q-53 88 -113 168h647q78 -211 117 -459q103 191 103 365q0 55 -17 94h584q74 -197 109.5 -481.5t37.5 -542.5h-473q-14 369 -121 711q-178 -348 -192 -711h-402q-53 401 -204 713q-111 -260 -111 -484q0 -121 29 -229h-498 q-14 84 -14 222z" />
<glyph unicode="n" horiz-adv-x="1464" d="M47 1024h582q86 -147 234.5 -304t283.5 -245q0 299 -68 549h244q12 -215 12 -453.5t-20 -570.5h-197q-397 213 -729 580q17 -138 17 -282v-12q0 -139 -11 -286h-239q41 252 41 466t-21 339q-82 123 -129 219z" />
<glyph unicode="o" horiz-adv-x="1347" d="M70 485q0 246 204.5 416t524.5 170q170 0 338 -51q147 -186 147 -399q0 -268 -219 -467t-530 -199q-133 0 -283 51q-182 233 -182 479zM564 298q72 -140 200 -202q96 123 96 285t-79 301t-218 211q-72 -122 -72 -287q0 -167 73 -308z" />
<glyph unicode="p" horiz-adv-x="1361" d="M78 692q0 186 22 332h1110q59 -231 66 -551q-303 -135 -674 -176v-41q0 -117 10 -256h-450q-84 326 -84 692zM604 438q131 16 219 66q-33 217 -176 385q-33 -203 -43 -451z" />
<glyph unicode="q" horiz-adv-x="1363" d="M82 484q0 245 205 416t524 171q176 0 336 -49q149 -187 149 -401q0 -296 -256 -500q23 4 82.5 20.5t97 16.5t80.5 -15l148 -190q-41 49 -120 49t-210 -22.5t-178 -24.5q-41 18 -82 61q-150 -61 -297 -61t-297 51q-182 233 -182 478zM576 298q73 -140 200 -202 q96 123 96 285t-79 301t-218 209q-74 -126 -74 -288q0 -164 75 -305z" />
<glyph unicode="r" horiz-adv-x="1445" d="M129 552q0 255 29 472h1069q47 -206 47 -356l-2 -70q-164 -88 -410 -137q176 -47 340 -47h43q113 -166 146 -414h-531q-20 143 -82.5 246.5t-152.5 140.5q-2 -35 -2 -139.5t12 -247.5h-447q-59 297 -59 552zM631 532q113 16 184 80q-38 138 -147 275q-25 -180 -37 -355z " />
<glyph unicode="s" horiz-adv-x="1300" d="M-29 -166q37 104 121 262h17q131 0 246.5 -41t211 -82t153.5 -41t85 9q0 135 -84 223q-45 47 -77 72.5t-97 70.5l-35 25q-139 96 -229 195.5t-131 244.5q66 145 129 252q195 47 403 47h90q176 0 404 -49q-33 -135 -80 -244q-172 -12 -267 -12q19 47 35 135 q-82 12 -175 12t-181 -12q55 -94 131 -153.5t191.5 -118t188.5 -107.5t161 -161.5t110 -235.5q-98 -127 -260 -224.5t-332 -129.5q-115 10 -289.5 64t-263 54t-176.5 -55z" />
<glyph unicode="t" horiz-adv-x="1443" d="M2 668l74 356h1362q-41 -225 -95 -369l-206 13q8 33 8 65q0 80 -49 119t-129 39q-53 -325 -53 -529q0 -6 -1 -11q0 -197 17 -351h-447q-69 321 -69 689v11q0 63 4 191q-174 -51 -213 -236z" />
<glyph unicode="u" horiz-adv-x="1435" d="M147 521q0 208 31 503h551q-82 -444 -86 -854q86 -78 248 -78t248 58q4 68 4 194q0 324 -58 680h263q8 -133 8 -388t-33 -544q-213 -137 -510 -137q-395 0 -639 137q-27 221 -27 429z" />
<glyph unicode="v" horiz-adv-x="1439" d="M16 1024h559q8 -375 193 -731q111 184 111 405q0 150 -54 326h547q2 -31 2 -90q0 -262 -69 -432q-188 -82 -302 -165t-114 -171t76 -166h-514q-346 440 -435 1024z" />
<glyph unicode="w" horiz-adv-x="2129" d="M29 1024h544q35 -440 181 -731q104 178 104 432q0 137 -35 299h488q33 -406 192 -731q105 193 105 416q0 160 -49 315h548q2 -31 2 -90q0 -262 -69 -434q-182 -53 -303 -141.5t-121 -181.5t84 -177h-516q-127 188 -215 436q-68 -154 -68 -259t60 -177h-515 q-158 209 -268 483.5t-149 540.5z" />
<glyph unicode="x" horiz-adv-x="1435" d="M16 -301q172 307 514 745q-211 330 -477 580h637q47 -100 131 -229q16 18 63.5 74.5t74 85t69.5 69.5q84 80 174 113q35 10 141.5 21t153.5 42q-49 -113 -117 -215q-66 -16 -113.5 -16t-90.5 6q-121 -86 -291 -281q248 -387 395 -694h-510q-84 180 -168 326 q-227 -324 -350 -574q-41 -10 -121 -27.5t-115 -25.5z" />
<glyph unicode="y" horiz-adv-x="1409" d="M72 1024h598q-43 -190 -43 -404t69 -489q14 55 49 193.5t51.5 198t50.5 168t61.5 162.5t68.5 122q74 121 194 164q35 10 141.5 21t153.5 42q-55 -127 -114 -217q-70 -16 -117 -16t-90 6q-63 -76 -114.5 -203t-77 -227.5t-56.5 -245.5q-156 -741 -311 -1053 q-102 -31 -254 -59q205 350 332 813h-424q-162 524 -168 1024z" />
<glyph unicode="z" horiz-adv-x="1306" d="M39 0q276 496 606 881q-49 10 -135 10t-155.5 -52.5t-88.5 -138.5q-158 10 -200 15l63 309h1141q-362 -393 -631 -866q106 -21 172 -21h18q86 0 139.5 39t75.5 137q152 -4 246 -8q-31 -178 -82 -305h-1169z" />
<glyph unicode="{" horiz-adv-x="520" d="M10 504q57 12 80 82q20 59 39 184q47 262 172 469h137q-57 -240 -72.5 -473.5t-89.5 -261.5q78 -31 105 -221q33 -260 129 -516q-78 10 -229 40q-147 227 -170 523q-10 115 -54 149q-18 16 -47 25z" />
<glyph unicode="|" horiz-adv-x="264" d="M61 1227h142q-18 -428 -18.5 -723t18.5 -748h-140q16 633 16.5 768t-18.5 703z" />
<glyph unicode="}" horiz-adv-x="516" d="M10 1239q68 -8 230 -41q131 -199 168 -475q0 -59 12 -105.5t22 -60.5q23 -41 70 -53q-63 -12 -86 -82q-20 -68 -27 -121q-33 -288 -180 -534h-137q61 276 74 471q10 238 88 266q-82 29 -105 219q-39 287 -129 516z" />
<glyph unicode="~" horiz-adv-x="919" d="M59 375l76 182q90 45 213 45q57 0 161.5 -38t162.5 -38q109 0 213 84l-76 -182q-82 -45 -213 -45q-57 0 -162 38t-160 38q-111 0 -215 -84z" />
<glyph unicode="&#xa2;" horiz-adv-x="1357" d="M78 518q0 217 168 375t489 176q6 25 15 78h110q-14 -59 -16 -76q178 -4 389 -51q-31 -123 -82 -246q-113 -10 -266 -14q20 76 33 139q-55 8 -109 12q-82 -408 -117 -610q68 -84 182 -151q188 125 336 311q8 -113 13 -250q-279 -221 -586 -250l-12 -78h-111q6 29 14 72 h-57q-184 80 -288.5 234.5t-104.5 328.5zM588 638q0 -114 37 -210q18 94 84 477l-88 -16q-33 -137 -33 -251z" />
<glyph unicode="&#xa3;" horiz-adv-x="1204" d="M41 2q12 59 35 115q131 39 241 41q119 131 132 307q-143 -4 -216 -8v106h209q-33 145 -172 311q76 137 203 248q276 -2 420 -80q0 -72 -12 -194q-123 168 -340 168q14 -27 126.5 -192t149.5 -265q63 0 191 4v-100h-164l4 -45q0 -211 -94 -328q57 -8 129 -8q178 0 317 65 q-55 -137 -119 -247q-197 0 -405 102q-143 -57 -326 -57h-20q-164 2 -289 57z" />
<glyph unicode="&#xa5;" horiz-adv-x="1503" d="M51 379v102h299q-39 39 -76 97q-219 -6 -223 -7v109q27 0 81 -1t83 -1q-86 162 -133 346h559q12 -209 47 -356.5t121 -280.5q137 145 137 322q0 106 -57 315h549v-43q0 -164 -54 -301h84v-109q-90 4 -135 4q-35 -55 -73 -98q70 0 208 4v-108h-313q-84 -53 -141 -80 q-8 -156 -41 -293h-539q86 164 103 299q-55 39 -99 82h-194q-129 0 -193 -2z" />
<glyph unicode="&#xa8;" horiz-adv-x="704" d="M37 1182q51 121 61 207q109 -10 209 -13q-24 -110 -69 -196l-82 -2q-41 0 -119 4zM403 1182q49 125 62 207q106 -10 209 -13q-29 -114 -70 -196l-84 -2q-39 0 -117 4z" />
<glyph unicode="&#xa9;" horiz-adv-x="1107" d="M27 512q0 213 150.5 362.5t361.5 149.5t361.5 -149.5t150.5 -362.5t-150.5 -362.5t-361.5 -149.5t-361.5 149.5t-150.5 362.5zM86 512q0 -188 133 -320.5t320.5 -132.5t320.5 132.5t133 320.5t-133 321.5t-321.5 133.5t-320.5 -133.5t-132 -321.5zM242 530.5 q0 98.5 92 176t266 77.5q92 0 205 -24q-14 -66 -39 -119q-66 -6 -131 -6q6 16 16 65q-35 6 -66.5 6.5t-78.5 -10.5q-16 -72 -17 -121q0 -156 140 -239q92 59 166 151l6 -122q-154 -123 -367 -123q-90 39 -141 114.5t-51 174z" />
<glyph unicode="&#xab;" horiz-adv-x="741" d="M8 500l223 452h168l-155 -452l155 -453h-168zM330 500l225 452h166l-154 -452l154 -453h-166z" />
<glyph unicode="&#xad;" horiz-adv-x="780" d="M25 502l30 26q88 79 135 97l138 -2q315 0 422 34q-66 -106 -154 -198h-61q-309 0 -510 43z" />
<glyph unicode="&#xae;" horiz-adv-x="1124" d="M45 514q0 211 149.5 361.5t362.5 150.5t362.5 -150.5t149.5 -361.5t-149.5 -361.5t-362.5 -150.5t-362.5 150.5t-149.5 361.5zM104 515q0 -187 132.5 -320.5t320.5 -133.5t320.5 133.5t132.5 320.5t-132.5 320.5t-320.5 133.5t-320.5 -133.5t-132.5 -320.5zM252 533.5 q0 138.5 14 236.5h533q23 -109 22 -213q-84 -45 -205 -68q92 -25 193 -24q57 -80 72 -205h-265q-10 72 -41.5 123.5t-76.5 69.5l-2 -50q0 -49 8 -143h-223q-29 135 -29 273.5zM502 524q59 10 92 41q-23 72 -74 135q-12 -88 -18 -176z" />
<glyph unicode="&#xb4;" horiz-adv-x="559" d="M72 1126q148 97 211 267l227 -29q-29 -55 -81 -102.5t-99 -74t-123 -61.5h-135z" />
<glyph unicode="&#xb8;" horiz-adv-x="374" d="M43 -217l90 262h74l-49 -143l88 14q35 0 64.5 -19.5t33.5 -50.5v-10q0 -80 -72.5 -146.5t-185.5 -68.5l-12 43q61 0 95 30t34 66q0 53 -66 54q-12 0 -94 -31z" />
<glyph unicode="&#xbb;" horiz-adv-x="741" d="M14 47l154 453l-154 452h166l226 -452l-226 -453h-166zM336 47l156 453l-156 452h168l223 -452l-223 -453h-168z" />
<glyph unicode="&#x2c6;" horiz-adv-x="534" d="M35 1143l184 235h100l185 -235h-66l-170 127l-168 -127h-65z" />
<glyph unicode="&#x2da;" horiz-adv-x="397" d="M47 1242q0 54 58.5 98t128 44t95 -31.5t25.5 -81.5t-55 -94t-129 -44q-29 0 -64 10q-59 45 -59 99zM160 1278q0 -86 63 -115q20 27 21 68q0 82 -68 112q-16 -32 -16 -65z" />
<glyph unicode="&#x2dc;" horiz-adv-x="636" d="M29 1194l26 82q25 29 63 52.5t82 23.5t106.5 -22.5t107.5 -22.5q111 0 202 96q-8 -16 -28.5 -75.5t-33.5 -81t-55 -45t-102.5 -23.5t-130 42t-102.5 42q-76 0 -135 -68z" />
<glyph unicode="&#x401;" horiz-adv-x="1316" d="M111 539.5q0 277.5 26 484.5h1067q-35 -211 -63 -311q-119 -6 -215 -8q16 47 16 88q0 96 -145 96h-19q-39 0 -100 -10q-43 -178 -66 -342q80 75 197 75l188 -12q27 0 41 2l-94 -180h-18q-39 0 -108.5 21.5t-98.5 21.5q-82 0 -129 -109q-10 -102 -12 -198q92 -23 178 -23 t137 40t74 138l239 -8q-33 -190 -80 -305h-976q-39 262 -39 539.5zM369 1182q51 121 61 207q109 -10 209 -13q-25 -110 -70 -196l-82 -2q-41 0 -118 4zM735 1182q49 125 62 207q106 -10 209 -13q-29 -114 -70 -196l-84 -2q-39 0 -117 4z" />
<glyph unicode="&#x402;" horiz-adv-x="1585" d="M16 670l74 354h1360q-39 -219 -92 -369q-111 6 -209 15q8 33 8 65q0 78 -49 116t-129 38q-25 -141 -37 -289q188 -23 327.5 -61.5t280.5 -112.5l2 -88q0 -295 -63 -479q-174 -121 -391 -203q-162 37 -301 90q0 98 10 225q127 -115 242 -172q51 186 51 443q0 78 -6 161 q-88 47 -162 54q-4 -106 -4 -213t14 -244h-446q-70 328 -70 698q0 63 4 191q-172 -47 -211 -234q-164 10 -203 15z" />
<glyph unicode="&#x403;" horiz-adv-x="1234" d="M104 549.5q0 273.5 29 474.5h1096q-35 -201 -66 -311q-104 -2 -221 -8q16 47 16 88q0 98 -147 98q-55 0 -123 -12q-102 -420 -102 -746q0 -90 4 -133h-445q-41 276 -41 549.5zM416 1126q148 97 211 267l227 -29q-29 -55 -81 -102.5t-99 -74t-123 -61.5h-135z" />
<glyph unicode="&#x404;" horiz-adv-x="1263" d="M53 518q0 229 189.5 391t548.5 162q188 0 419 -51q-37 -145 -82 -246q-123 -8 -266 -12q20 57 35 135q-72 12 -140.5 12t-158.5 -22q-33 -137 -33 -215t6 -121q51 78 115 104.5t150 26.5l178 -6q39 0 57 2l-100 -182l-27 -2l-184 18q-96 0 -152 -104q63 -154 242 -258 q182 119 338 311q8 -113 12 -250q-98 -78 -177 -125t-221.5 -89t-305.5 -42h-47q-184 80 -290 235.5t-106 327.5z" />
<glyph unicode="&#x405;" horiz-adv-x="1300" d="M-29 -166q37 104 121 262h17q131 0 246.5 -41t211 -82t153.5 -41t85 9q0 135 -84 223q-45 47 -77 72.5t-97 70.5l-35 25q-139 96 -229 195.5t-131 244.5q66 145 129 252q195 47 403 47h90q176 0 404 -49q-33 -135 -80 -244q-172 -12 -267 -12q19 47 35 135 q-82 12 -175 12t-181 -12q55 -94 131 -153.5t191.5 -118t188.5 -107.5t161 -161.5t110 -235.5q-98 -127 -260 -224.5t-332 -129.5q-115 10 -289.5 64t-263 54t-176.5 -55z" />
<glyph unicode="&#x406;" horiz-adv-x="811" d="M139 0q39 188 39 435t-33 589h553v-55q0 -541 -67 -969h-492z" />
<glyph unicode="&#x407;" horiz-adv-x="811" d="M82 1180q51 123 63 209q109 -10 213 -13q-25 -109 -71 -198q-137 0 -205 2zM135 1024h541q4 -139 4 -209q0 -428 -70 -815h-465q29 219 29 482t-39 542zM457 1180q51 123 63 209q109 -10 215 -13q-27 -111 -71 -198q-137 0 -207 2z" />
<glyph unicode="&#x408;" horiz-adv-x="1087" d="M10 -143q4 135 13 249q190 -137 370 -198q14 160 14.5 441.5t-47.5 674.5h553q4 -78 5 -240q0 -434 -58 -784q-80 -76 -147.5 -111.5t-92 -49t-88 -41t-75.5 -34.5q-262 20 -447 93z" />
<glyph unicode="&#x409;" horiz-adv-x="1974" d="M31 0q25 293 90 500q428 121 690 360q10 78 33 164h506q-33 -190 -43 -348q360 -41 635 -180q-6 -285 -64 -496h-1044q-50 205 -50 496q0 47 4 137q-123 -78 -180 -211t-57 -283q0 -74 12 -139h-532zM1303 535q0 -215 51 -398q109 135 133 342q-86 48 -184 56z" />
<glyph unicode="&#x40a;" horiz-adv-x="2027" d="M86 1024h539q4 -123 4 -182v-66q139 -47 235 -100q0 188 -14 348h530q4 -25 4 -174.5t-4 -173.5q360 -41 631 -180q-16 -287 -147 -494h-1045q37 268 43 520q-106 66 -237 80q-12 -301 -66 -600h-465q29 199 29 468t-37 554zM1329 137q84 57 149.5 151.5t77.5 192.5 q-90 46 -182 54q-16 -211 -45 -398z" />
<glyph unicode="&#x40b;" horiz-adv-x="1716" d="M39 668l72 356h1362q-35 -205 -93 -369l-209 13q8 33 9 65q0 80 -49.5 119t-129.5 39q-25 -145 -36 -293q223 -78 475 -78q66 0 100 2q111 -231 137 -522h-522q0 315 -82 389q-39 35 -121 53q-2 -45 -2 -172t15 -270h-447q-70 328 -69 700q0 63 4 191q-176 -51 -211 -236 z" />
<glyph unicode="&#x40c;" horiz-adv-x="1447" d="M84 509q0 208 31 515h569q-61 -254 -84 -426q92 152 193.5 255t240.5 175q53 10 133 10h68q131 0 195 31q-90 -133 -175 -231h-32q-104 0 -203 32q-139 -115 -223 -305q217 -55 483 -65q61 -156 84 -500h-530q-35 152 -106 280t-146 175q-14 -168 -14.5 -270.5 t5.5 -184.5h-450q-39 301 -39 509zM514 1126q148 97 211 267l227 -29q-29 -55 -81 -102.5t-99 -74t-123 -61.5h-135z" />
<glyph unicode="&#x40e;" horiz-adv-x="1499" d="M162 1024h598q-43 -190 -43 -404t69 -489q14 55 49 193.5t51.5 198t50.5 168t61.5 162.5t68.5 122q74 121 195 164q35 10 141 21t153 42q-55 -127 -114 -217q-70 -16 -117 -16t-90 6q-63 -76 -114.5 -203t-77 -227.5t-56.5 -245.5q-156 -741 -311 -1053 q-102 -31 -254 -59q205 350 332 813h-424q-162 524 -168 1024zM569 1182q10 61 38 136t30 75l104 -133q72 -45 169.5 -45.5t174.5 67.5q4 0 -18.5 -40t-75.5 -83q-68 -57 -179.5 -57t-213.5 63z" />
<glyph unicode="&#x40f;" horiz-adv-x="1335" d="M100 541.5q0 191.5 29 482.5h528q-82 -438 -82 -821q88 -74 239 -74t237 55q4 115 4 170q0 315 -56 670h250q8 -131 8 -371.5t-30 -523.5q-188 -117 -449 -129q-8 -80 -33 -195q-12 -2 -70.5 -2t-94.5 15q18 82 22 186q-283 18 -477 125q-25 221 -25 412.5z" />
<glyph unicode="&#x410;" horiz-adv-x="1570" d="M125 222q0 138 41 278q147 43 283.5 145.5t197.5 220.5q-55 86 -117 158h680q203 -441 203 -1008v-16h-475q-8 117 -35 242q-127 -129 -287 -242h-477q-14 84 -14 222zM616 201q148 75 250 190q-53 182 -139 344q-96 -283 -111 -534z" />
<glyph unicode="&#x411;" horiz-adv-x="1445" d="M109 623q0 209 38 401h1227q-29 -143 -65 -248q-49 -2 -142.5 -4t-142.5 -4q23 70 25 123q-211 0 -347 -12q-16 -74 -40 -226q418 -51 647 -202q-25 -260 -88 -451h-1028q-84 295 -84 623zM625 135q141 0 229 23q-29 211 -209 354q-20 -182 -20 -377z" />
<glyph unicode="&#x412;" horiz-adv-x="1423" d="M143 614q0 215 39 410h1137q-92 -287 -352 -416q236 -84 376 -233q-18 -190 -88 -375h-1030q-82 284 -82 614zM659 133q139 0 228 23q-37 227 -209 338q-19 -183 -19 -361zM694 635q100 27 186.5 92.5t123.5 161.5q-164 0 -267 -10q-25 -119 -43 -244z" />
<glyph unicode="&#x413;" horiz-adv-x="1234" d="M104 549.5q0 273.5 29 474.5h1096q-35 -201 -66 -311q-104 -2 -221 -8q16 47 16 88q0 98 -147 98q-55 0 -123 -12q-102 -420 -102 -746q0 -90 4 -133h-445q-41 276 -41 549.5z" />
<glyph unicode="&#x414;" horiz-adv-x="1521" d="M12 158q43 -4 129 -8q0 223 39 350q141 41 257 141t177 225q-55 86 -116 158h678q178 -379 200 -883l140 -6q-39 -215 -95 -371l-225 13q21 53 21 96q0 127 -170 127h-603q-172 0 -172 -186q0 -31 2 -47q-117 2 -184 6q-43 139 -78 385zM586 268q0 -61 8 -110 q133 -20 278 -23q-39 326 -178 594q-108 -256 -108 -461z" />
<glyph unicode="&#x415;" horiz-adv-x="1374" d="M131 548.5q0 272.5 29 475.5h1097q-37 -221 -65 -311q-121 -6 -221 -8q16 47 16 88q0 98 -147 98q-55 0 -123 -12q-45 -195 -70 -342q82 75 203 75l192 -12q29 0 43 2l-96 -180h-18q-39 0 -111 21.5t-102 21.5q-84 0 -133 -109q-8 -100 -13 -200q106 -20 168 -21h19 q88 0 140 39t75 139l246 -10q-31 -176 -82 -303h-1006q-41 276 -41 548.5z" />
<glyph unicode="&#x416;" horiz-adv-x="2148" d="M0 1067q63 -33 197 -33h65q88 0 131 -8q137 -72 231.5 -173t180.5 -251q4 211 24 422h566q-39 -152 -84 -424q90 150 190.5 252t241.5 174q43 8 131 8h65q131 0 199 33q-8 -10 -33.5 -50t-43 -65.5t-42.5 -56.5q-51 -63 -86 -64q-94 0 -204 37q-143 -121 -222 -303 q223 -53 482 -63q63 -150 86 -502h-531q-31 150 -103.5 279t-146.5 178q-14 -137 -14 -278.5t4 -178.5h-446q-29 195 -33 457q-88 -55 -161 -181t-73 -276h-528q12 338 84 502q264 10 481 65q-72 182 -207 301q-116 -37 -206 -37l-31 3q-82 102 -164 233z" />
<glyph unicode="&#x417;" horiz-adv-x="1273" d="M-72 -168q45 123 123 262h29q127 0 240.5 -41t207 -82t154.5 -41t74.5 14.5t13.5 89.5t-33 193q-76 242 -162 246q-113 -31 -146.5 -31t-39.5 2q37 76 98 183h64q119 0 192 -11q45 117 45 238l-2 47q-43 12 -148.5 12t-143.5 -12q14 -76 34 -137q-143 4 -264 12 q-45 100 -82 246q221 49 447 49q477 0 477 -149q0 -23 -14 -56q-92 -176 -201 -280q164 -43 253 -167t107 -296q-96 -127 -259 -223.5t-333 -128.5q-115 10 -289.5 63t-264 53t-177.5 -55z" />
<glyph unicode="&#x418;" horiz-adv-x="1587" d="M145 1024h541q2 -37 2 -196.5t-37 -424.5q164 150 293 353q-2 127 -22 268h530q4 -123 4 -184q0 -397 -78 -840h-489q41 274 53 496q-115 -178 -377 -496h-409q27 205 26.5 484.5t-37.5 539.5z" />
<glyph unicode="&#x419;" horiz-adv-x="1587" d="M145 1024h541q2 -37 2 -196.5t-37 -424.5q164 150 293 353q-2 127 -22 268h530q4 -123 4 -184q0 -397 -78 -840h-489q41 274 53 496q-115 -178 -377 -496h-409q27 205 26.5 484.5t-37.5 539.5zM569 1182q10 61 38 136t30 75l104 -133q72 -45 169.5 -45.5t174.5 67.5 q4 0 -18.5 -40t-75.5 -83q-68 -57 -182 -57h-10q-98 0 -201 63z" />
<glyph unicode="&#x41a;" horiz-adv-x="1447" d="M84 509q0 208 31 515h569q-61 -254 -84 -426q92 152 193.5 255t240.5 175q53 10 133 10h68q131 0 195 31q-90 -133 -175 -231h-32q-104 0 -203 32q-139 -115 -223 -305q217 -55 483 -65q61 -156 84 -500h-530q-35 152 -106 280t-146 175q-14 -168 -14.5 -270.5 t5.5 -184.5h-450q-39 301 -39 509z" />
<glyph unicode="&#x41b;" horiz-adv-x="1443" d="M76 225.5q0 141.5 39 274.5q150 43 287 146.5t196 219.5q-45 72 -117 158h678q203 -436 203 -1024h-473q-37 412 -209 731q-111 -252 -111 -463q0 -143 54 -268h-533q-14 84 -14 225.5z" />
<glyph unicode="&#x41c;" horiz-adv-x="2154" d="M74 222q0 138 41 278q145 43 279 141t198 215q-53 88 -113 168h647q78 -211 117 -459q103 191 103 365q0 55 -17 94h584q74 -197 109.5 -481.5t37.5 -542.5h-473q-14 369 -121 711q-178 -348 -192 -711h-402q-53 401 -204 713q-111 -260 -111 -484q0 -121 29 -229h-498 q-14 84 -14 222z" />
<glyph unicode="&#x41d;" d="M129 1024h541q4 -84 4 -250q119 -37 235 -100q0 190 -14 350h532q5 -115 5 -170q0 -401 -78 -854h-490q33 242 43 520q-106 66 -237 80q-12 -301 -66 -600h-465q27 201 27 480.5t-37 543.5z" />
<glyph unicode="&#x41e;" horiz-adv-x="1347" d="M70 485q0 246 204.5 416t524.5 170q170 0 338 -51q147 -186 147 -399q0 -268 -219 -467t-530 -199q-133 0 -283 51q-182 233 -182 479zM491.5 604q0.5 -166 73 -306t199.5 -202q96 123 96 285t-79 301t-218 211q-72 -123 -71.5 -289z" />
<glyph unicode="&#x41f;" d="M94 1024h1297l4 -174q0 -399 -78 -850h-490q47 334 47 664q0 115 -6 227h-34q-117 0 -195 -12v-66q0 -412 -70 -813h-467q29 219 29 479t-37 545z" />
<glyph unicode="&#x420;" horiz-adv-x="1361" d="M78 692q0 186 22 332h1110q59 -231 66 -551q-303 -135 -674 -176v-41q0 -117 10 -256h-450q-84 326 -84 692zM604 438q131 16 219 66q-33 217 -176 385q-33 -203 -43 -451z" />
<glyph unicode="&#x421;" horiz-adv-x="1294" d="M78 520q0 229 188.5 390t546.5 161q201 0 420 -51q-33 -129 -82 -244q-129 -12 -266 -12q21 57 35 135q-72 12 -138.5 12t-160.5 -22q-31 -129 -31 -252q0 -317 282 -487q188 125 340 311q6 -82 11 -250q-152 -119 -309.5 -186.5t-393.5 -67.5h-47q-184 80 -289.5 235.5 t-105.5 327.5z" />
<glyph unicode="&#x422;" horiz-adv-x="1443" d="M2 668l74 356h1362q-41 -225 -95 -369l-206 13q8 33 8 65q0 80 -49 119t-129 39q-53 -324 -53.5 -528.5t16.5 -362.5h-447q-70 326 -69 700q0 63 4 191q-174 -51 -213 -236z" />
<glyph unicode="&#x423;" horiz-adv-x="1499" d="M162 1024h598q-43 -190 -43 -404t69 -489q14 55 49 193.5t51.5 198t50.5 168t61.5 162.5t68.5 122q74 121 195 164q35 10 141 21t153 42q-55 -127 -114 -217q-70 -16 -117 -16t-90 6q-63 -76 -114.5 -203t-77 -227.5t-56.5 -245.5q-156 -741 -311 -1053 q-102 -31 -254 -59q205 350 332 813h-424q-162 524 -168 1024z" />
<glyph unicode="&#x424;" horiz-adv-x="1800" d="M41 565q0 256 90 459h451q-20 152 -35 227q393 -66 590 -100q2 -23 6 -65t4 -62h543q70 -170 69 -367q0 -82 -16 -196q-238 -117 -584 -152q-6 -156 -18 -309h-518q10 174 10 309q-350 35 -588 152q-4 69 -4 104zM440 494q80 -31 191 -41q-6 215 -31 432 q-53 -70 -98 -180.5t-62 -210.5zM1155 885q6 -164 6 -324v-108q113 10 187 41q-31 178 -193 391z" />
<glyph unicode="&#x425;" horiz-adv-x="1437" d="M18 -301q172 307 514 745q-211 330 -477 580h637q47 -100 131 -229q16 18 63.5 74.5t74 85t71.5 69.5q82 80 172 113q35 10 141.5 21t153.5 42q-49 -113 -117 -215q-66 -16 -113.5 -16t-90.5 6q-121 -86 -291 -281q248 -387 395 -694h-510q-84 180 -168 326 q-227 -324 -350 -574q-41 -10 -121 -27.5t-115 -25.5z" />
<glyph unicode="&#x426;" horiz-adv-x="1536" d="M104 1024h541q4 -139 4 -209q0 -346 -45 -659q96 -23 250 -23q31 276 31 487t-17 404h533q4 -119 4 -176q0 -344 -55 -705q92 -8 174 -10q-35 -205 -92 -369l-226 13q20 53 21 96q0 127 -172 127h-942q29 199 28.5 469t-37.5 555z" />
<glyph unicode="&#x427;" horiz-adv-x="1484" d="M84 1024h522q1 -531 232 -578q-8 109 -8.5 265.5t14.5 312.5h565q-76 -379 -76 -725q0 -162 15 -299h-449q-31 158 -45 283q-102 66 -352 65q-119 0 -234 -14q-139 313 -184 690z" />
<glyph unicode="&#x428;" horiz-adv-x="2197" d="M111 1024h540q4 -139 4 -209q0 -344 -45 -657q96 -23 248 -23q12 158 12 393.5t-36 495.5h540q2 -35 2 -104q0 -389 -78 -764q102 -20 244 -21q29 262 29 492.5t-15 396.5h533q4 -123 4 -170q0 -403 -78 -854h-1894q27 201 26.5 480.5t-36.5 543.5z" />
<glyph unicode="&#x429;" horiz-adv-x="2158" d="M57 1024h541q4 -139 4 -211q0 -344 -45 -657q96 -23 246 -23q14 145 14 375.5t-37 515.5h539q2 -37 2 -117q0 -367 -78 -751q96 -23 246 -23q29 258 29 478t-17 413h533q4 -119 4 -178q0 -342 -56 -703q94 -8 177 -10q-39 -211 -95 -369l-225 13q20 53 21 96 q0 127 -170 127h-1624q29 199 28.5 469t-37.5 555z" />
<glyph unicode="&#x42a;" horiz-adv-x="1552" d="M20 717l64 307h836q-33 -190 -43 -348q367 -41 634 -180q-6 -285 -63 -496h-1042q-49 205 -49.5 457t28.5 434q-76 -23 -111.5 -63t-50.5 -123zM872 535q0 -215 52 -398q106 135 135 344q-95 46 -187 54z" />
<glyph unicode="&#x42b;" horiz-adv-x="1955" d="M82 512q0 315 57 512h506q-33 -195 -43 -350q358 -41 637 -180q-6 -272 -65 -494h-1045q-47 197 -47 512zM598 532q0 -217 51 -397q106 131 135 342q-90 47 -186 55zM1329 1024h541q4 -139 4 -209q0 -428 -70 -815h-465q27 201 27 480.5t-37 543.5z" />
<glyph unicode="&#x42c;" horiz-adv-x="1288" d="M109 513q0 308 59 511h504q-33 -190 -43 -348q358 -41 637 -180q-6 -274 -64 -496h-1044q-49 205 -49 513zM625 535q0 -215 51 -398q109 135 135 342q-90 48 -186 56z" />
<glyph unicode="&#x42d;" horiz-adv-x="1310" d="M111 1020q231 51 419 51q358 0 548 -161.5t190 -391.5q0 -172 -105.5 -327.5t-290.5 -235.5h-47q-164 0 -306 42t-221 89t-177 125q4 137 12 250q156 -193 338 -311q178 104 242 258q-55 104 -152 104l-184 -18l-27 2l-100 182q18 -2 57 -2l178 6q86 0 149.5 -26.5 t115.5 -104.5q6 43 6 121t-33 215q-90 23 -158.5 22.5t-140.5 -12.5q14 -78 35 -135q-143 4 -266 12q-45 100 -82 246z" />
<glyph unicode="&#x42e;" horiz-adv-x="1968" d="M72 1024h540q4 -78 4 -216t-2 -200q90 0 154 -8q51 221 252 346t446 125q156 0 328 -51q145 -186 145 -402q0 -264 -214 -463.5t-519 -199.5q-125 0 -276 49q-174 225 -178 463q-100 0 -146 -2q-18 -227 -59 -465h-465q29 217 29 481t-39 543zM1163 596q0 -160 73 -296 t196 -196q92 121 92 279t-77 294t-212 204q-72 -125 -72 -285z" />
<glyph unicode="&#x42f;" horiz-adv-x="1343" d="M43 0q16 231 84 403q242 10 424 58q-238 49 -410 137v59q0 162 45 367h1069q29 -217 29 -472t-59 -552h-447q12 143 12.5 248.5t-2.5 140.5q-174 -74 -217 -389h-528zM600 612q70 -63 182 -80q-12 175 -37 355q-109 -139 -145 -275z" />
<glyph unicode="&#x430;" horiz-adv-x="1570" d="M125 222q0 138 41 278q147 43 283.5 145.5t197.5 220.5q-55 86 -117 158h680q203 -441 203 -1008v-16h-475q-8 117 -35 242q-127 -129 -287 -242h-477q-14 84 -14 222zM616 201q148 75 250 190q-53 182 -139 344q-96 -283 -111 -534z" />
<glyph unicode="&#x431;" horiz-adv-x="1445" d="M109 623q0 209 38 401h1227q-29 -143 -65 -248q-49 -2 -142.5 -4t-142.5 -4q23 70 25 123q-211 0 -347 -12q-16 -74 -40 -226q418 -51 647 -202q-25 -260 -88 -451h-1028q-84 295 -84 623zM625 135q141 0 229 23q-29 211 -209 354q-20 -182 -20 -377z" />
<glyph unicode="&#x432;" horiz-adv-x="1423" d="M143 614q0 215 39 410h1137q-92 -287 -352 -416q236 -84 376 -233q-18 -190 -88 -375h-1030q-82 284 -82 614zM659 133q139 0 228 23q-37 227 -209 338q-19 -183 -19 -361zM694 635q100 27 186.5 92.5t123.5 161.5q-164 0 -267 -10q-25 -119 -43 -244z" />
<glyph unicode="&#x433;" horiz-adv-x="1234" d="M104 549.5q0 273.5 29 474.5h1096q-35 -201 -66 -311q-104 -2 -221 -8q16 47 16 88q0 98 -147 98q-55 0 -123 -12q-102 -420 -102 -746q0 -90 4 -133h-445q-41 276 -41 549.5z" />
<glyph unicode="&#x434;" horiz-adv-x="1521" d="M12 158q43 -4 129 -8q0 223 39 350q141 41 257 141t177 225q-55 86 -116 158h678q178 -379 200 -883l140 -6q-39 -215 -95 -371l-225 13q21 53 21 96q0 127 -170 127h-603q-172 0 -172 -186q0 -31 2 -47q-117 2 -184 6q-43 139 -78 385zM586 268q0 -61 8 -110 q133 -20 278 -23q-39 326 -178 594q-108 -256 -108 -461z" />
<glyph unicode="&#x435;" horiz-adv-x="1374" d="M131 548.5q0 272.5 29 475.5h1097q-37 -221 -65 -311q-121 -6 -221 -8q16 47 16 88q0 98 -147 98q-55 0 -123 -12q-45 -195 -70 -342q82 75 203 75l192 -12q29 0 43 2l-96 -180h-18q-39 0 -111 21.5t-102 21.5q-84 0 -133 -109q-8 -100 -13 -200q106 -20 168 -21h19 q88 0 140 39t75 139l246 -10q-31 -176 -82 -303h-1006q-41 276 -41 548.5z" />
<glyph unicode="&#x436;" horiz-adv-x="2148" d="M0 1067q68 -33 190.5 -33t216 -31.5t166 -97t124 -134.5t108.5 -169q2 209 24 422h566q-51 -205 -84 -424q90 150 190.5 252t241.5 174q45 10 112 10l97 -2q119 0 186 33q-6 -8 -22.5 -34.5t-27.5 -44t-29.5 -44t-34 -44t-31.5 -36.5q-33 -33 -60 -33q-94 0 -204 37 q-139 -115 -222 -303q223 -53 482 -63q66 -162 86 -502h-531q-33 152 -104.5 281t-145.5 176q-14 -137 -14 -269.5t4 -187.5h-446q-29 215 -33 457q-86 -55 -160 -180t-74 -269q0 -10 -270 -10l-258 2q16 334 84 502q268 12 481 65q-74 186 -207 301q-115 -37 -206 -37 q-35 0 -72 49.5t-49 69.5q-63 96 -74 117z" />
<glyph unicode="&#x437;" horiz-adv-x="1273" d="M-72 -168q92 262 152 262q127 0 240.5 -41t207 -82t155.5 -41t74.5 15.5t12.5 66.5q0 145 -64.5 303t-130.5 158q-113 -31 -146.5 -31t-39.5 2q37 76 98 183h64q119 0 192 -11q45 117 45 238l-2 47q-43 12 -148.5 12t-143.5 -12q14 -76 34 -137q-143 4 -264 12 q-45 100 -82 246q221 49 447 49q477 0 477 -149q0 -23 -14 -56q-92 -176 -201 -280q164 -43 253 -167t107 -296q-96 -127 -259 -223.5t-333 -128.5q-115 10 -289.5 63t-262 53t-179.5 -55z" />
<glyph unicode="&#x438;" horiz-adv-x="1587" d="M145 1024h541q2 -37 2 -196.5t-37 -424.5q164 150 293 353q-2 127 -22 268h530q4 -123 4 -184q0 -397 -78 -840h-489q41 274 53 496q-115 -178 -377 -496h-409q27 205 26.5 484.5t-37.5 539.5z" />
<glyph unicode="&#x439;" horiz-adv-x="1587" d="M145 1024h541q2 -37 2 -196.5t-37 -424.5q164 150 293 353q-2 127 -22 268h530q4 -123 4 -184q0 -397 -78 -840h-489q41 274 53 496q-115 -178 -377 -496h-409q27 205 26.5 484.5t-37.5 539.5zM569 1182q10 61 38 136t30 75l104 -133q72 -45 169.5 -45.5t174.5 67.5 q4 0 -18.5 -40t-75.5 -83q-68 -57 -182 -57h-10q-98 0 -201 63z" />
<glyph unicode="&#x43a;" horiz-adv-x="1447" d="M84 509q0 208 31 515h569q-61 -254 -84 -426q92 152 193.5 255t240.5 175q53 10 133 10h68q131 0 195 31q-90 -133 -175 -231h-32q-104 0 -203 32q-139 -115 -223 -305q217 -55 483 -65q61 -156 84 -500h-530q-35 152 -106 280t-146 175q-14 -168 -14.5 -270.5 t5.5 -184.5h-450q-39 301 -39 509z" />
<glyph unicode="&#x43b;" horiz-adv-x="1443" d="M76 225.5q0 141.5 39 274.5q150 43 287 146.5t196 219.5q-45 72 -117 158h678q203 -436 203 -1024h-473q-37 412 -209 731q-111 -252 -111 -463q0 -143 54 -268h-533q-14 84 -14 225.5z" />
<glyph unicode="&#x43c;" horiz-adv-x="2154" d="M74 222q0 138 41 278q143 43 277 141t200 215q-41 70 -113 168h647q78 -211 117 -459q103 185 103 365q0 51 -17 94h584q74 -201 110.5 -487.5t36.5 -536.5h-473q-14 381 -121 711q-180 -352 -192 -711h-402q-51 401 -204 713q-111 -262 -111 -484q0 -127 29 -229h-498 q-14 84 -14 222z" />
<glyph unicode="&#x43d;" d="M129 1024h541q4 -84 4 -250q119 -37 235 -100q0 190 -14 350h532q5 -115 5 -170q0 -401 -78 -854h-490q33 242 43 520q-106 66 -237 80q-12 -301 -66 -600h-465q27 201 27 480.5t-37 543.5z" />
<glyph unicode="&#x43e;" horiz-adv-x="1347" d="M70 485q0 246 204.5 416t524.5 170q170 0 338 -51q147 -186 147 -399q0 -268 -219 -467t-530 -199q-133 0 -283 51q-182 233 -182 479zM491.5 604q0.5 -166 73 -306t199.5 -202q96 123 96 285t-79 301t-218 211q-72 -123 -71.5 -289z" />
<glyph unicode="&#x43f;" d="M94 1024h1297l4 -174q0 -399 -78 -850h-490q47 334 47 664q0 115 -6 227h-34q-117 0 -195 -12v-66q0 -412 -70 -813h-467q29 219 29 479t-37 545z" />
<glyph unicode="&#x440;" horiz-adv-x="1361" d="M78 692q0 186 22 332h1110q59 -231 66 -551q-303 -135 -674 -176v-41q0 -117 10 -256h-450q-84 326 -84 692zM604 438q131 16 219 66q-33 217 -176 385q-33 -203 -43 -451z" />
<glyph unicode="&#x441;" horiz-adv-x="1294" d="M78 520q0 229 188.5 390t546.5 161q201 0 420 -51q-33 -129 -82 -244q-129 -12 -266 -12q21 57 35 135q-72 12 -138.5 12t-160.5 -22q-31 -129 -31 -252q0 -317 282 -487q188 125 340 311q6 -82 11 -250q-152 -119 -309.5 -186.5t-393.5 -67.5h-47q-184 80 -289.5 235.5 t-105.5 327.5z" />
<glyph unicode="&#x442;" horiz-adv-x="1443" d="M2 668l74 356h1362q-41 -225 -95 -369l-206 13q8 33 8 65q0 80 -49 119t-129 39q-53 -324 -53.5 -528.5t16.5 -362.5h-447q-70 326 -69 700q0 63 4 191q-174 -51 -213 -236z" />
<glyph unicode="&#x443;" horiz-adv-x="1398" d="M61 1024h598q-43 -190 -43 -404t70 -489q14 55 49 193.5t51.5 198t50 168t61.5 162.5t69 122q74 121 194 164q35 10 141.5 21t153.5 42q-56 -127 -115 -217q-70 -16 -116.5 -16t-89.5 6q-63 -76 -114.5 -203t-77 -227.5t-56.5 -245.5q-156 -741 -312 -1053 q-102 -31 -253 -59q205 350 331 813h-424q-162 524 -168 1024z" />
<glyph unicode="&#x444;" horiz-adv-x="1863" d="M90 565q0 256 90 459h451q-10 76 -35 227q393 -66 590 -100q2 -23 6 -65t4 -62h543q70 -178 69 -367q0 -86 -16 -196q-250 -121 -584 -152q-6 -156 -18 -309h-518q10 170 10 309q-338 31 -588 152q-4 69 -4 104zM489 494q76 -31 191 -41q-6 213 -31 432 q-53 -66 -98 -179.5t-62 -211.5zM1204 885q6 -164 6 -324v-108q113 10 187 41q-14 90 -72.5 201.5t-120.5 189.5z" />
<glyph unicode="&#x445;" horiz-adv-x="1437" d="M18 -301q172 307 514 745q-211 330 -477 580h637q47 -100 131 -229q16 18 63.5 74.5t74 85t71.5 69.5q82 80 172 113q35 10 141.5 21t153.5 42q-49 -113 -117 -215q-66 -16 -113.5 -16t-90.5 6q-121 -86 -291 -281q248 -387 395 -694h-510q-84 180 -168 326 q-227 -324 -350 -574q-41 -10 -121 -27.5t-115 -25.5z" />
<glyph unicode="&#x446;" horiz-adv-x="1536" d="M104 1024h541q4 -139 4 -209q0 -346 -45 -659q96 -23 250 -23q31 276 31 487t-17 404h533q4 -119 4 -176q0 -344 -55 -705q92 -8 174 -10q-35 -205 -92 -369l-226 13q20 53 21 96q0 127 -172 127h-942q29 199 28.5 469t-37.5 555z" />
<glyph unicode="&#x447;" horiz-adv-x="1484" d="M84 1024h522q1 -531 232 -578q-8 109 -8.5 265.5t14.5 312.5h565q-76 -379 -76 -725q0 -162 15 -299h-449q-31 158 -45 283q-102 66 -352 65q-119 0 -234 -14q-139 313 -184 690z" />
<glyph unicode="&#x448;" horiz-adv-x="2197" d="M111 1024h540q4 -139 4 -209q0 -344 -45 -657q96 -23 248 -23q12 158 12 393.5t-36 495.5h540q2 -35 2 -104q0 -389 -78 -764q102 -20 244 -21q29 262 29 492.5t-15 396.5h533q4 -123 4 -170q0 -403 -78 -854h-1894q27 201 26.5 480.5t-36.5 543.5z" />
<glyph unicode="&#x449;" horiz-adv-x="2158" d="M57 1024h541q4 -139 4 -211q0 -344 -45 -657q96 -23 246 -23q14 145 14 375.5t-37 515.5h539q2 -37 2 -117q0 -367 -78 -751q96 -23 246 -23q29 258 29 478t-17 413h533q4 -119 4 -178q0 -342 -56 -703q94 -8 177 -10q-39 -211 -95 -369l-225 13q20 53 21 96 q0 127 -170 127h-1624q29 199 28.5 469t-37.5 555z" />
<glyph unicode="&#x44a;" horiz-adv-x="1552" d="M20 717l64 307h836q-33 -190 -43 -348q367 -41 634 -180q-6 -285 -63 -496h-1042q-49 205 -49.5 457t28.5 434q-76 -23 -111.5 -63t-50.5 -123zM872 535q0 -215 52 -398q106 135 135 344q-95 46 -187 54z" />
<glyph unicode="&#x44b;" horiz-adv-x="1955" d="M82 512q0 315 57 512h506q-33 -195 -43 -350q358 -41 637 -180q-6 -272 -65 -494h-1045q-47 197 -47 512zM598 532q0 -217 51 -397q106 131 135 342q-90 47 -186 55zM1329 1024h541q4 -139 4 -209q0 -428 -70 -815h-465q27 201 27 480.5t-37 543.5z" />
<glyph unicode="&#x44c;" horiz-adv-x="1288" d="M109 513q0 308 59 511h504q-33 -190 -43 -348q358 -41 637 -180q-6 -274 -64 -496h-1044q-49 205 -49 513zM625 535q0 -215 51 -398q109 135 135 342q-90 48 -186 56z" />
<glyph unicode="&#x44d;" horiz-adv-x="1310" d="M111 1020q231 51 419 51q358 0 548 -161.5t190 -391.5q0 -172 -105.5 -327.5t-290.5 -235.5h-47q-164 0 -306 42t-221 89t-177 125q4 137 12 250q156 -193 338 -311q178 104 242 258q-55 104 -152 104l-184 -18l-27 2l-100 182q18 -2 57 -2l178 6q86 0 149.5 -26.5 t115.5 -104.5q6 43 6 121t-33 215q-90 23 -158.5 22.5t-140.5 -12.5q14 -78 35 -135q-143 4 -266 12q-45 100 -82 246z" />
<glyph unicode="&#x44e;" horiz-adv-x="1968" d="M72 1024h540q4 -78 4 -216t-2 -200q90 0 154 -8q51 221 252 346t446 125q156 0 328 -51q145 -186 145 -402q0 -264 -214 -463.5t-519 -199.5q-125 0 -276 49q-174 225 -178 463q-100 0 -146 -2q-18 -227 -59 -465h-465q29 217 29 481t-39 543zM1163 596q0 -160 73 -296 t196 -196q92 121 92 279t-77 294t-212 204q-72 -125 -72 -285z" />
<glyph unicode="&#x44f;" horiz-adv-x="1343" d="M43 0q16 231 84 403q242 10 424 58q-238 49 -410 137v59q0 162 45 367h1069q29 -217 29 -472t-59 -552h-447q12 143 12.5 248.5t-2.5 140.5q-174 -74 -217 -389h-528zM600 612q70 -63 182 -80q-12 175 -37 355q-109 -139 -145 -275z" />
<glyph unicode="&#x451;" horiz-adv-x="1316" d="M111 539.5q0 277.5 26 484.5h1067q-35 -211 -63 -311q-119 -6 -215 -8q16 47 16 88q0 96 -145 96h-19q-39 0 -100 -10q-43 -178 -66 -342q80 75 197 75l188 -12q27 0 41 2l-94 -180h-18q-39 0 -108.5 21.5t-98.5 21.5q-82 0 -129 -109q-10 -102 -12 -198q92 -23 178 -23 t137 40t74 138l239 -8q-33 -190 -80 -305h-976q-39 262 -39 539.5zM369 1182q51 121 61 207q109 -10 209 -13q-25 -110 -70 -196l-82 -2q-41 0 -118 4zM735 1182q49 125 62 207q106 -10 209 -13q-29 -114 -70 -196l-84 -2q-39 0 -117 4z" />
<glyph unicode="&#x452;" horiz-adv-x="1585" d="M16 670l74 354h1360q-39 -219 -92 -369q-111 6 -209 15q8 33 8 65q0 78 -49 116t-129 38q-25 -141 -37 -289q188 -23 327.5 -61.5t280.5 -112.5l2 -88q0 -295 -63 -479q-174 -121 -391 -203q-162 37 -301 90q0 98 10 225q127 -115 242 -172q51 186 51 443q0 78 -6 161 q-88 47 -162 54q-4 -106 -4 -213t14 -244h-446q-70 328 -70 698q0 63 4 191q-172 -47 -211 -234q-164 10 -203 15z" />
<glyph unicode="&#x453;" horiz-adv-x="1234" d="M104 549.5q0 273.5 29 474.5h1096q-35 -201 -66 -311q-104 -2 -221 -8q16 47 16 88q0 98 -147 98q-55 0 -123 -12q-102 -420 -102 -746q0 -90 4 -133h-445q-41 276 -41 549.5zM416 1126q148 97 211 267l227 -29q-29 -55 -81 -102.5t-99 -74t-123 -61.5h-135z" />
<glyph unicode="&#x454;" horiz-adv-x="1263" d="M53 518q0 229 189.5 391t548.5 162q188 0 419 -51q-37 -145 -82 -246q-123 -8 -266 -12q20 57 35 135q-72 12 -140.5 12t-158.5 -22q-33 -137 -33 -215t6 -121q51 78 115 104.5t150 26.5l178 -6q39 0 57 2l-100 -182l-27 -2l-184 18q-96 0 -152 -104q63 -154 242 -258 q182 119 338 311q8 -113 12 -250q-98 -78 -177 -125t-221.5 -89t-305.5 -42h-47q-184 80 -290 235.5t-106 327.5z" />
<glyph unicode="&#x455;" horiz-adv-x="1300" d="M-29 -166q37 104 121 262h17q131 0 246.5 -41t211 -82t153.5 -41t85 9q0 135 -84 223q-45 47 -77 72.5t-97 70.5l-35 25q-139 96 -229 195.5t-131 244.5q66 145 129 252q195 47 403 47h90q176 0 404 -49q-33 -135 -80 -244q-172 -12 -267 -12q19 47 35 135 q-82 12 -175 12t-181 -12q55 -94 131 -153.5t191.5 -118t188.5 -107.5t161 -161.5t110 -235.5q-98 -127 -260 -224.5t-332 -129.5q-115 10 -289.5 64t-263 54t-176.5 -55z" />
<glyph unicode="&#x456;" horiz-adv-x="811" d="M139 0q39 188 39 435t-33 589h553v-55q0 -541 -67 -969h-492z" />
<glyph unicode="&#x457;" horiz-adv-x="811" d="M82 1180q51 123 63 209q109 -10 213 -13q-25 -109 -71 -198q-137 0 -205 2zM135 1024h541q4 -139 4 -209q0 -428 -70 -815h-465q29 219 29 482t-39 542zM457 1180q51 123 63 209q109 -10 215 -13q-27 -111 -71 -198q-137 0 -207 2z" />
<glyph unicode="&#x458;" horiz-adv-x="1087" d="M10 -143q4 135 13 249q190 -137 370 -198q14 160 14.5 441.5t-47.5 674.5h553q4 -78 5 -240q0 -434 -58 -784q-80 -76 -147.5 -111.5t-92 -49t-88 -41t-75.5 -34.5q-262 20 -447 93z" />
<glyph unicode="&#x459;" horiz-adv-x="1974" d="M31 0q25 293 90 500q428 121 690 360q10 78 33 164h506q-33 -190 -43 -348q360 -41 635 -180q-6 -285 -64 -496h-1044q-50 205 -50 496q0 47 4 137q-123 -78 -180 -211t-57 -283q0 -74 12 -139h-532zM1303 535q0 -215 51 -398q109 135 133 342q-86 48 -184 56z" />
<glyph unicode="&#x45a;" horiz-adv-x="2027" d="M86 1024h539q4 -123 4 -182v-66q139 -47 235 -100q0 188 -14 348h530q4 -25 4 -174.5t-4 -173.5q360 -41 631 -180q-16 -287 -147 -494h-1045q37 268 43 520q-106 66 -237 80q-12 -301 -66 -600h-465q29 199 29 468t-37 554zM1329 137q84 57 149.5 151.5t77.5 192.5 q-90 46 -182 54q-16 -211 -45 -398z" />
<glyph unicode="&#x45b;" horiz-adv-x="1716" d="M39 668l72 356h1362q-35 -205 -93 -369l-209 13q8 33 9 65q0 80 -49.5 119t-129.5 39q-25 -145 -36 -293q223 -78 475 -78q66 0 100 2q111 -231 137 -522h-522q0 315 -82 389q-39 35 -121 53q-2 -45 -2 -172t15 -270h-447q-70 328 -69 700q0 63 4 191q-176 -51 -211 -236 z" />
<glyph unicode="&#x45c;" horiz-adv-x="1447" d="M84 509q0 208 31 515h569q-61 -254 -84 -426q92 152 193.5 255t240.5 175q53 10 133 10h68q131 0 195 31q-90 -133 -175 -231h-32q-104 0 -203 32q-139 -115 -223 -305q217 -55 483 -65q61 -156 84 -500h-530q-35 152 -106 280t-146 175q-14 -168 -14.5 -270.5 t5.5 -184.5h-450q-39 301 -39 509zM514 1126q148 97 211 267l227 -29q-29 -55 -81 -102.5t-99 -74t-123 -61.5h-135z" />
<glyph unicode="&#x45e;" horiz-adv-x="1499" d="M162 1024h598q-43 -190 -43 -404t69 -489q14 55 49 193.5t51.5 198t50.5 168t61.5 162.5t68.5 122q74 121 195 164q35 10 141 21t153 42q-55 -127 -114 -217q-70 -16 -117 -16t-90 6q-63 -76 -114.5 -203t-77 -227.5t-56.5 -245.5q-156 -741 -311 -1053 q-102 -31 -254 -59q205 350 332 813h-424q-162 524 -168 1024zM569 1182q10 61 38 136t30 75l104 -133q72 -45 169.5 -45.5t174.5 67.5q4 0 -18.5 -40t-75.5 -83q-68 -57 -179.5 -57t-213.5 63z" />
<glyph unicode="&#x45f;" horiz-adv-x="1335" d="M100 541.5q0 191.5 29 482.5h528q-82 -438 -82 -821q88 -74 239 -74t237 55q4 115 4 170q0 315 -56 670h250q8 -131 8 -371.5t-30 -523.5q-188 -117 -449 -129q-8 -80 -33 -195q-12 -2 -70.5 -2t-94.5 15q18 82 22 186q-283 18 -477 125q-25 221 -25 412.5z" />
<glyph unicode="&#x490;" horiz-adv-x="1218" d="M84 549.5q0 273.5 29 474.5h710q162 0 203 178q106 -2 221 -8q-31 -180 -82 -303h-374q-63 0 -123 -10q-102 -438 -103 -752q0 -86 4 -129h-444q-41 276 -41 549.5z" />
<glyph unicode="&#x491;" horiz-adv-x="1218" d="M84 549.5q0 273.5 29 474.5h710q162 0 203 178q106 -2 221 -8q-31 -180 -82 -303h-374q-63 0 -123 -10q-102 -438 -103 -752q0 -86 4 -129h-444q-41 276 -41 549.5z" />
<glyph unicode="&#x2000;" horiz-adv-x="701" />
<glyph unicode="&#x2001;" horiz-adv-x="1403" />
<glyph unicode="&#x2002;" horiz-adv-x="701" />
<glyph unicode="&#x2003;" horiz-adv-x="1403" />
<glyph unicode="&#x2004;" horiz-adv-x="467" />
<glyph unicode="&#x2005;" horiz-adv-x="350" />
<glyph unicode="&#x2006;" horiz-adv-x="233" />
<glyph unicode="&#x2007;" horiz-adv-x="233" />
<glyph unicode="&#x2008;" horiz-adv-x="175" />
<glyph unicode="&#x2009;" horiz-adv-x="280" />
<glyph unicode="&#x200a;" horiz-adv-x="77" />
<glyph unicode="&#x2010;" horiz-adv-x="780" d="M25 502l30 26q88 79 135 97l138 -2q315 0 422 34q-66 -106 -154 -198h-61q-309 0 -510 43z" />
<glyph unicode="&#x2011;" horiz-adv-x="780" d="M25 502l30 26q88 79 135 97l138 -2q315 0 422 34q-66 -106 -154 -198h-61q-309 0 -510 43z" />
<glyph unicode="&#x2012;" horiz-adv-x="780" d="M25 502l30 26q88 79 135 97l138 -2q315 0 422 34q-66 -106 -154 -198h-61q-309 0 -510 43z" />
<glyph unicode="&#x2013;" horiz-adv-x="772" d="M102 319v138q158 -10 284 -10.5t284 10.5v-138q-141 12 -283.5 12.5t-284.5 -12.5z" />
<glyph unicode="&#x2014;" horiz-adv-x="1222" d="M102 319v138q283 -10 509.5 -10.5t508.5 10.5v-138q-293 14 -507 14.5t-511 -14.5z" />
<glyph unicode="&#x2018;" horiz-adv-x="393" d="M6 883q33 205 139 360q33 -4 95 -16q-45 -82 -45 -148q125 0 192 -12q-41 -88 -45 -205q-114 21 -270 21h-66z" />
<glyph unicode="&#x2019;" horiz-adv-x="395" d="M6 1022q41 92 45 205q127 -23 338 -23q-39 -207 -141 -358q-61 8 -94 16q43 80 47 148q-127 0 -195 12z" />
<glyph unicode="&#x201a;" horiz-adv-x="440" d="M33 0q41 92 45 209q127 -23 344 -23q-37 -203 -143 -366q-51 6 -97 18q47 80 47 150q-129 0 -196 12z" />
<glyph unicode="&#x201c;" horiz-adv-x="817" d="M6 889q33 205 139 360q33 -4 95 -16q-45 -82 -45 -148q125 0 192 -12q-41 -88 -45 -205q-114 21 -270 21h-66zM430 889q33 205 139 360q33 -4 95 -16q-45 -82 -46 -148q125 0 193 -12q-41 -88 -45 -205q-114 21 -270 21h-66z" />
<glyph unicode="&#x201d;" horiz-adv-x="823" d="M6 1022q41 92 45 205q127 -23 338 -23q-39 -207 -141 -358q-61 8 -94 16q43 80 47 148q-127 0 -195 12zM434 1022q41 92 45 205q127 -23 338 -23q-39 -207 -141 -358q-61 8 -94 16q43 80 47 148q-127 0 -195 12z" />
<glyph unicode="&#x201e;" horiz-adv-x="907" d="M33 0q41 92 45 209q127 -23 344 -23q-37 -203 -143 -366q-51 6 -97 18q47 80 47 150q-129 0 -196 12zM492 0q41 92 45 209q127 -23 344 -23q-37 -203 -144 -366q-51 6 -96 18q47 80 47 150q-129 0 -196 12z" />
<glyph unicode="&#x2026;" horiz-adv-x="1345" d="M37 0q41 94 45 209q117 -20 344 -21q-29 -114 -72 -198q-23 -2 -130 -2t-187 12zM485 0q41 94 45 209q117 -20 344 -21q-28 -114 -71 -198q-23 -2 -130.5 -2t-187.5 12zM934 0q41 94 45 209q117 -20 344 -21q-29 -114 -72 -198q-23 -2 -130 -2t-187 12z" />
<glyph unicode="&#x202f;" horiz-adv-x="280" />
<glyph unicode="&#x2039;" horiz-adv-x="405" d="M8 500l223 452h168l-155 -452l155 -453h-168z" />
<glyph unicode="&#x203a;" horiz-adv-x="405" d="M8 47l156 453l-156 452h168l223 -452l-223 -453h-168z" />
<glyph unicode="&#x205f;" horiz-adv-x="350" />
<glyph unicode="&#x20ac;" horiz-adv-x="1331" d="M10 369l41 110l107 -4l-2 45q0 16 4 58q-76 0 -150 -7l41 113q88 0 129 -4q59 174 239.5 282.5t475.5 108.5q197 0 416 -49q-35 -145 -82 -248q-109 -10 -266 -14q20 66 34 139q-76 10 -145.5 10t-153.5 -20q-25 -117 -30 -211q193 0 383 6l-35 -113q-236 8 -346 11 q2 -55 18 -109q164 0 293 6l-37 -110q-215 6 -219 6q66 -129 225 -228q184 119 340 314q10 -119 13 -252q-158 -123 -324 -188.5t-428 -65.5q-145 61 -242.5 173t-134.5 247q-53 -2 -164 -6z" />
<glyph unicode="&#x2122;" horiz-adv-x="1796" d="M59 848l37 176h680q-20 -108 -47 -184l-104 8q4 25 4 35q0 76 -88 75q-25 -152 -25 -261t6 -183h-223q-35 166 -35 290t2 154q-84 -25 -104 -118h-21q-61 4 -82 8zM699 626.5q0 69.5 20 137.5q72 20 138.5 69.5t98.5 106.5q-27 47 -55 84h324q39 -106 57 -227 q51 92 51 180q0 31 -8 47h293q70 -190 74 -510h-238q-6 176 -59 354q-90 -174 -99 -354h-200q-25 199 -101 356q-55 -131 -55 -216t14 -140h-247q-8 43 -8 112.5z" />
<glyph unicode="&#x25fc;" horiz-adv-x="1198" d="M0 0v1198h1198v-1198h-1198z" />
</font>
</defs>
</svg>
